PathFileType	4	(x/y/z)	S08_SL_Cal_T01
DataRate	CameraRate	NumFrames	NumMarkers	Units	OrigDataRate	OrigDataStartFrame	OrigNumFrames
240	240	5	51	mm	240	1801	2400
Frame#	Time	Sternum			R.Acromium			L.Acromium			Top.Head			R.ASIS			L.ASIS			R.PSIS			L.PSIS			R.Great.Tro			L.Great.Tro			R.Iliac.Crest			L.Iliac.Crest			V.Sacral			R.Thigh.Upper.Post			R.Thigh.Lower.Ant			R.Thigh.Lower.Post			R.Thigh.Upper.Ant			R.Knee.Lat			R.Knee.Med			R.Shank.Upper.Post			R.Shank.Lower.Ant			R.Shank.Lower.Post			R.Shank.Upper.Ant			R.Ankle.Lat			R.Ankle.Med			R.Heel.Upper			R.Heel.Med			R.Heel.Lat			R.Toe.Lat			R.Toe.Med			R.Toe.Tip			L.Thigh.Upper.Post			L.Thigh.Lower.Ant			L.Thigh.Lower.Post			L.Thigh.Upper.Ant			L.Knee.Lat			L.Knee.Med			L.Shank.Upper.Post			L.Shank.Lower.Ant			L.Shank.Lower.Post			L.Shank.Upper.Ant			L.Ankle.Lat			L.Ankle.Med			L.Heel.Upper			L.Heel.Med			L.Heel.Lat			L.Toe.Lat			L.Toe.Med			L.Toe.Tip			Cervical.Spine			Back			
		X1	Y1	Z1	X2	Y2	Z2	X3	Y3	Z3	X4	Y4	Z4	X5	Y5	Z5	X6	Y6	Z6	X7	Y7	Z7	X8	Y8	Z8	X9	Y9	Z9	X10	Y10	Z10	X11	Y11	Z11	X12	Y12	Z12	X13	Y13	Z13	X14	Y14	Z14	X15	Y15	Z15	X16	Y16	Z16	X17	Y17	Z17	X18	Y18	Z18	X19	Y19	Z19	X20	Y20	Z20	X21	Y21	Z21	X22	Y22	Z22	X23	Y23	Z23	X24	Y24	Z24	X25	Y25	Z25	X26	Y26	Z26	X27	Y27	Z27	X28	Y28	Z28	X29	Y29	Z29	X30	Y30	Z30	X31	Y31	Z31	X32	Y32	Z32	X33	Y33	Z33	X34	Y34	Z34	X35	Y35	Z35	X36	Y36	Z36	X37	Y37	Z37	X38	Y38	Z38	X39	Y39	Z39	X40	Y40	Z40	X41	Y41	Z41	X42	Y42	Z42	X43	Y43	Z43	X44	Y44	Z44	X45	Y45	Z45	X46	Y46	Z46	X47	Y47	Z47	X48	Y48	Z48	X49	Y49	Z49	X50	Y50	Z50	X51	Y51	Z51	

1801	7.5	562.21	1246.3	331.21	418.86	1483	497.7	416.94	1496.4	162.8	449.37	1805.6	342.58	534.06	1021.7	435.35	542.59	1025.7	202.16	338.13	1051.9	354.36	344.6	1059.8	261.56	451.86	924.83	502.11	438.27	928.73	136.5	438.26	1091.7	479.46	455.22	1110.3	174.85	321.87	1017.9	304.77	398.72	737.59	515.17	458.22	623	500.43	390.47	646.87	509.62	475.42	716.99	509.05	409.1	530.1	499.78	389.18	518.5	373.4	326.9	355.74	525.53	389.78	291.73	518.23	326.97	277.98	525.42	392.07	368.78	518.47	335.41	102.93	509.2	368.02	112.29	434.07	291.31	66.207	463.96	305.57	39.497	438.21	294.89	42.633	499.36	NaN	NaN	NaN	491.6	44.24	440.63	554.11	59.225	490.96	394.91	737.73	122.09	465.51	633.27	125.87	397.99	646.3	124.48	465.4	722.34	115.56	396.55	534.25	129.62	406.33	513.68	254.17	322.31	358.19	111	389.3	268.33	111.51	319.33	283.94	117.59	386.19	345.05	107	345.77	105.52	103.08	375.15	102.95	185.7	295.09	76.231	150.46	311.38	42.154	179.51	301.63	48.808	116.59	475.16	38.457	67.379	503.03	44.077	180.54	562.55	59.121	126.89	351.58	1525	320.63	329.5	1243	334.73
1802	7.5042	562.23	1246.3	331.21	418.88	1483	497.71	416.95	1496.4	162.81	449.39	1805.6	342.58	534.08	1021.7	435.35	542.61	1025.7	202.16	338.15	1051.9	354.36	344.62	1059.8	261.56	451.87	924.83	502.11	438.29	928.73	136.5	438.3	1091.7	479.46	455.24	1110.3	174.85	321.89	1017.9	304.76	398.73	737.59	515.17	458.23	623	500.43	390.48	646.87	509.62	475.44	716.98	509.05	409.11	530.1	499.78	389.19	518.5	373.4	326.9	355.73	525.52	389.79	291.73	518.23	326.98	277.98	525.42	392.08	368.78	518.47	335.41	102.93	509.2	368.02	112.29	434.07	291.31	66.207	463.96	305.57	39.496	438.21	294.89	42.634	499.36	NaN	NaN	NaN	491.6	44.239	440.63	554.11	59.225	490.96	394.92	737.74	122.09	465.52	633.27	125.87	398	646.3	124.48	465.41	722.33	115.56	396.56	534.25	129.62	406.34	513.68	254.16	322.32	358.19	111	389.31	268.33	111.51	319.33	283.95	117.59	386.19	345.05	107	345.77	105.52	103.08	375.15	102.95	185.7	295.1	76.232	150.46	311.37	42.154	179.51	301.63	48.808	116.59	475.16	38.457	67.378	503.03	44.077	180.54	562.55	59.121	126.89	351.6	1525	320.65	329.52	1243	334.74
1803	7.5083	562.25	1246.3	331.22	418.9	1483	497.73	416.96	1496.4	162.82	449.41	1805.6	342.57	534.1	1021.7	435.35	542.63	1025.7	202.16	338.17	1051.9	354.36	344.64	1059.8	261.56	451.89	924.82	502.11	438.3	928.73	136.5	438.34	1091.7	479.46	455.27	1110.3	174.85	321.91	1017.9	304.76	398.74	737.59	515.17	458.24	623	500.43	390.49	646.86	509.62	475.45	716.98	509.05	409.12	530.1	499.78	389.2	518.5	373.4	326.9	355.72	525.51	389.79	291.73	518.22	326.98	277.98	525.42	392.08	368.78	518.47	335.41	102.93	509.2	368.02	112.29	434.07	291.31	66.208	463.96	305.57	39.495	438.21	294.89	42.635	499.36	NaN	NaN	NaN	491.6	44.239	440.63	554.11	59.225	490.96	394.94	737.74	122.09	465.54	633.26	125.87	398.01	646.3	124.48	465.43	722.33	115.55	396.57	534.25	129.61	406.35	513.68	254.16	322.32	358.19	111	389.31	268.34	111.51	319.34	283.95	117.59	386.2	345.05	107	345.77	105.52	103.08	375.15	102.95	185.7	295.1	76.233	150.46	311.37	42.155	179.51	301.63	48.808	116.59	475.16	38.457	67.377	503.03	44.077	180.54	562.55	59.121	126.89	351.61	1525	320.66	329.54	1243	334.75
1804	7.5125	562.27	1246.3	331.23	418.92	1483	497.74	416.96	1496.4	162.83	449.42	1805.6	342.56	534.13	1021.6	435.35	542.65	1025.7	202.17	338.19	1051.9	354.36	344.66	1059.8	261.56	451.91	924.82	502.11	438.32	928.74	136.5	438.38	1091.7	479.46	455.29	1110.3	174.86	321.93	1017.9	304.76	398.76	737.59	515.17	458.25	623	500.43	390.51	646.86	509.62	475.46	716.98	509.05	409.13	530.1	499.78	389.21	518.5	373.4	326.9	355.71	525.5	389.8	291.73	518.22	326.98	277.98	525.42	392.09	368.78	518.46	335.41	102.93	509.2	368.02	112.29	434.07	291.31	66.208	463.96	305.57	39.493	438.21	294.89	42.635	499.36	NaN	NaN	NaN	491.6	44.239	440.64	554.11	59.224	490.96	394.96	737.74	122.08	465.55	633.26	125.87	398.03	646.3	124.48	465.44	722.33	115.55	396.58	534.25	129.61	406.36	513.68	254.16	322.33	358.19	111	389.32	268.34	111.51	319.34	283.95	117.59	386.2	345.05	106.99	345.77	105.53	103.08	375.15	102.95	185.7	295.1	76.234	150.46	311.37	42.155	179.51	301.63	48.808	116.59	475.16	38.457	67.376	503.03	44.077	180.54	562.56	59.121	126.89	351.62	1525	320.68	329.55	1243	334.76
1805	7.5167	562.28	1246.3	331.24	418.94	1483	497.76	416.97	1496.4	162.85	449.43	1805.6	342.55	534.15	1021.6	435.35	542.67	1025.7	202.17	338.21	1051.9	354.36	344.68	1059.8	261.56	451.93	924.81	502.11	438.34	928.74	136.5	438.41	1091.7	479.46	455.32	1110.3	174.86	321.94	1017.9	304.76	398.77	737.59	515.17	458.26	622.99	500.43	390.52	646.86	509.62	475.48	716.98	509.05	409.14	530.1	499.78	389.22	518.5	373.4	326.9	355.69	525.49	389.8	291.73	518.22	326.99	277.98	525.42	392.1	368.78	518.46	335.41	102.93	509.2	368.03	112.29	434.07	291.3	66.209	463.95	305.57	39.492	438.21	294.89	42.636	499.36	NaN	NaN	NaN	491.61	44.238	440.64	554.11	59.224	490.96	394.97	737.74	122.08	465.57	633.26	125.86	398.04	646.3	124.47	465.46	722.33	115.55	396.59	534.25	129.61	406.37	513.68	254.16	322.33	358.19	111	389.32	268.34	111.5	319.35	283.95	117.59	386.21	345.05	106.99	345.77	105.53	103.08	375.15	102.95	185.7	295.1	76.235	150.46	311.37	42.156	179.51	301.63	48.808	116.59	475.16	38.457	67.375	503.03	44.077	180.54	562.56	59.12	126.89	351.63	1525	320.7	329.57	1243	334.77
